<svg xmlns="http://www.w3.org/2000/svg" viewBox="0 0 512 512" role="img" aria-label="Denge">
  <defs>
    <linearGradient id="bg" x1="72" y1="42" x2="434" y2="476" gradientUnits="userSpaceOnUse">
      <stop stop-color="#6c8ef5"/>
      <stop offset=".46" stop-color="#4f46e5"/>
      <stop offset="1" stop-color="#111827"/>
    </linearGradient>
    <linearGradient id="flow" x1="150" y1="317" x2="366" y2="215" gradientUnits="userSpaceOnUse">
      <stop stop-color="#fbbf24"/>
      <stop offset=".5" stop-color="#34d399"/>
      <stop offset="1" stop-color="#60a5fa"/>
    </linearGradient>
    <filter id="shadow" x="-20%" y="-20%" width="140%" height="145%">
      <feDropShadow dx="0" dy="18" stdDeviation="18" flood-color="#050816" flood-opacity=".34"/>
    </filter>
    <filter id="softGlow" x="-30%" y="-30%" width="160%" height="160%">
      <feGaussianBlur stdDeviation="12" result="blur"/>
      <feColorMatrix in="blur" type="matrix" values="0 0 0 0 0.38 0 0 0 0 0.52 0 0 0 0 1 0 0 0 .32 0"/>
      <feBlend in="SourceGraphic"/>
    </filter>
  </defs>

  <rect width="512" height="512" fill="#0a0b0f"/>
  <rect x="28" y="28" width="456" height="456" rx="96" fill="url(#bg)"/>
  <path d="M92 151h328M92 257h328M92 363h328M151 92v328M257 92v328M363 92v328" stroke="#ffffff" stroke-opacity=".07" stroke-width="3"/>

  <g filter="url(#shadow)">
    <path d="M156 145v222h89c66 0 111-46 111-111s-45-111-111-111h-89Z" fill="#ffffff" fill-opacity=".12"/>
    <path d="M156 145v222h89c66 0 111-46 111-111s-45-111-111-111h-89Z" fill="none" stroke="#ffffff" stroke-width="42" stroke-linecap="round" stroke-linejoin="round"/>
    <path d="M156 145v222" stroke="#ffffff" stroke-width="42" stroke-linecap="round"/>
  </g>

  <g filter="url(#softGlow)">
    <path d="M145 316c42-45 80-47 116-10 32 32 67 25 105-71" fill="none" stroke="url(#flow)" stroke-width="28" stroke-linecap="round" stroke-linejoin="round"/>
    <circle cx="145" cy="316" r="19" fill="#fbbf24"/>
    <circle cx="366" cy="235" r="19" fill="#60a5fa"/>
  </g>

  <path d="M159 389h196" stroke="#ffffff" stroke-opacity=".3" stroke-width="16" stroke-linecap="round"/>
</svg>
